<svg id="kity_svg_6" xmlns="http://www.w3.org/2000/svg" xmlns:xlink="http://www.w3.org/1999/xlink" version="1.1" width="1186" height="492" style="background-color: rgb(251, 251, 251); visibility: visible;" viewBox="0 0 1186 492"><defs id="kity_defs_7"><linearGradient id="kity_linearGradient_17" x1="0" y1="0" x2="0" y2="1"><stop id="kity_stop_18" offset="0" stop-color="rgb(255, 255, 255)"></stop><stop id="kity_stop_19" offset="1" stop-color="rgb(204, 204, 204)"></stop></linearGradient><marker id="kity_marker_2" orient="auto" refX="6" refY="0" viewBox="-7 -7 14 14" markerWidth="7" markerHeight="7" markerUnits="userSpaceOnUse"><path id="kity_path_3" fill="rgb(115, 161, 191)" stroke="none" d="M6,0A6,6,0,1,1,-6,0A6,6,0,1,1,6,0"></path></marker></defs><g id="kity_g_8"><g id="minder1" text-rendering="optimize-speed"><g id="minder_connect_group1"><path id="kity_path_31" fill="none" stroke="rgb(115, 161, 191)" stroke-width="1" d="M76.5,375.5A174,84,0,0,1,250.5,291.5"></path><path id="kity_path_39" fill="none" stroke="rgb(115, 161, 191)" stroke-width="1" d="M76.5,375.5A174,84,0,0,0,250.5,459.5"></path><path id="kity_path_47" fill="none" stroke="rgb(115, 161, 191)" stroke-width="1" d="M398.5,291.5C418.5,291.5,418.5,187.5,438.5,187.5"></path><path id="kity_path_55" fill="none" stroke="rgb(115, 161, 191)" stroke-width="1" d="M398.5,291.5C418.5,291.5,418.5,343.5,438.5,343.5"></path><path id="kity_path_63" fill="none" stroke="rgb(115, 161, 191)" stroke-width="1" d="M398.5,291.5C418.5,291.5,418.5,395.5,438.5,395.5"></path><path id="kity_path_71" fill="none" stroke="rgb(115, 161, 191)" stroke-width="1" d="M700.5,109.5C720.5,109.5,720.5,31.5,740.5,31.5"></path><path id="kity_path_79" fill="none" stroke="rgb(115, 161, 191)" stroke-width="1" d="M700.5,109.5C720.5,109.5,720.5,83.5,740.5,83.5"></path><path id="kity_path_87" fill="none" stroke="rgb(115, 161, 191)" stroke-width="1" d="M700.5,109.5C720.5,109.5,720.5,135.5,740.5,135.5"></path><path id="kity_path_95" fill="none" stroke="rgb(115, 161, 191)" stroke-width="1" d="M700.5,109.5C720.5,109.5,720.5,187.5,740.5,187.5"></path><path id="kity_path_103" fill="none" stroke="rgb(115, 161, 191)" stroke-width="1" d="M549.5,187.5C569.5,187.5,569.5,109.5,589.5,109.5"></path><path id="kity_path_111" fill="none" stroke="rgb(115, 161, 191)" stroke-width="1" d="M549.5,187.5C569.5,187.5,569.5,265.5,589.5,265.5"></path><path id="kity_path_119" fill="none" stroke="rgb(115, 161, 191)" stroke-width="1" d="M688.5,265.5C708.5,265.5,708.5,239.5,728.5,239.5"></path><path id="kity_path_127" fill="none" stroke="rgb(115, 161, 191)" stroke-width="1" d="M688.5,265.5C708.5,265.5,708.5,291.5,728.5,291.5"></path><path id="kity_path_135" fill="none" stroke="rgb(115, 161, 191)" stroke-width="1" d="M549.5,343.5C569.5,343.5,569.5,343.5,589.5,343.5"></path><path id="kity_path_143" fill="none" stroke="rgb(115, 161, 191)" stroke-width="1" d="M549.5,395.5C569.5,395.5,569.5,395.5,589.5,395.5"></path></g><g id="minder_node1"><path id="node_outline1" fill="rgb(115, 161, 191)" stroke="rgb(115, 161, 191)" d="M25.5,355.5h102a5,5,0,0,1,5,5v30a5,5,0,0,1,-5,5h-102a5,5,0,0,1,-5,-5v-30a5,5,0,0,1,5,-5z" stroke-width="3"></path><g id="node_text1" fill="white"><text id="kity_text_22" text-rendering="inherit" font-size="16" dy=".8em" y="367.5" x="44.5">数据类型</text></g></g><g id="kity_g_14" display="none"><path id="kity_path_15" fill="rgba(0, 92, 153, 0.5)" stroke="none" d="M589.5,156.5h68v15h-68z"></path><path id="kity_path_16" fill="none" stroke="rgb(0, 76, 128)" d="M589.5,171.5L657.5,171.5" stroke-width="1"></path></g><g id="minder_node2" opacity="1"><g id="node_expander1" style="cursor: pointer;"><path id="kity_path_36" fill="white" stroke="gray" d="M251.5,291.5A6,6,0,1,1,239.5,291.5A6,6,0,1,1,251.5,291.5"></path><path id="kity_path_37" fill="none" stroke="gray" d="M241,291.5L250,291.5"></path></g><path id="node_outline2" fill="rgb(238, 243, 246)" stroke="rgb(115, 161, 191)" d="M255.5,278.5h140a3,3,0,0,1,3,3v20a3,3,0,0,1,-3,3h-140a3,3,0,0,1,-3,-3v-20a3,3,0,0,1,3,-3z" stroke-width="1"></path><g id="node_text2" fill="black"><text id="kity_text_33" text-rendering="inherit" font-size="14" dy=".8em" y="284.5" x="272.5">基本类型（8种）</text></g></g><g id="minder_node3" opacity="1"><g id="node_expander2" display="none" style="cursor: pointer;"><path id="kity_path_44" fill="white" stroke="gray" d="M251.5,459.5A6,6,0,1,1,239.5,459.5A6,6,0,1,1,251.5,459.5"></path><path id="kity_path_45" fill="none" stroke="gray"></path></g><path id="node_outline3" fill="rgb(238, 243, 246)" stroke="rgb(115, 161, 191)" d="M255.5,446.5h90a3,3,0,0,1,3,3v20a3,3,0,0,1,-3,3h-90a3,3,0,0,1,-3,-3v-20a3,3,0,0,1,3,-3z" stroke-width="1"></path><g id="node_text3" fill="black"><text id="kity_text_41" text-rendering="inherit" font-size="14" dy=".8em" y="452.5" x="272.5">引用类型</text></g></g><g id="minder_node4"><g id="node_expander3" style="cursor: pointer;"><path id="kity_path_52" fill="white" stroke="gray" d="M438.5,187.5A6,6,0,1,1,426.5,187.5A6,6,0,1,1,438.5,187.5"></path><path id="kity_path_53" fill="none" stroke="gray" d="M428,187.5L437,187.5"></path></g><path id="node_outline4" fill="none" stroke="none" d="M443.5,176.5h101a5,5,0,0,1,5,5v12a5,5,0,0,1,-5,5h-101a5,5,0,0,1,-5,-5v-12a5,5,0,0,1,5,-5z" stroke-width="3"></path><g id="node_text4" fill="black"><text id="kity_text_49" text-rendering="inherit" font-size="12" dy=".8em" y="181.5" x="448.5">数字类型（6种）</text></g></g><g id="minder_node5"><g id="node_expander4" style="cursor: pointer;"><path id="kity_path_60" fill="white" stroke="gray" d="M438.5,343.5A6,6,0,1,1,426.5,343.5A6,6,0,1,1,438.5,343.5"></path><path id="kity_path_61" fill="none" stroke="gray" d="M428,343.5L437,343.5"></path></g><path id="node_outline5" fill="none" stroke="none" d="M443.5,332.5h101a5,5,0,0,1,5,5v12a5,5,0,0,1,-5,5h-101a5,5,0,0,1,-5,-5v-12a5,5,0,0,1,5,-5z" stroke-width="3"></path><g id="node_text5" fill="black"><text id="kity_text_57" text-rendering="inherit" font-size="12" dy=".8em" y="337.5" x="448.5">字符类型（1种）</text></g></g><g id="minder_node6"><g id="node_expander5" style="cursor: pointer;"><path id="kity_path_68" fill="white" stroke="gray" d="M438.5,395.5A6,6,0,1,1,426.5,395.5A6,6,0,1,1,438.5,395.5"></path><path id="kity_path_69" fill="none" stroke="gray" d="M428,395.5L437,395.5"></path></g><path id="node_outline6" fill="none" stroke="none" d="M443.5,384.5h101a5,5,0,0,1,5,5v12a5,5,0,0,1,-5,5h-101a5,5,0,0,1,-5,-5v-12a5,5,0,0,1,5,-5z" stroke-width="3"></path><g id="node_text6" fill="black"><text id="kity_text_65" text-rendering="inherit" font-size="12" dy=".8em" y="389.5" x="448.5">布尔类型（1种）</text></g></g><g id="minder_node7" opacity="1"><g id="node_expander6" display="none" style="cursor: pointer;"><path id="kity_path_76" fill="white" stroke="gray" d="M740.5,31.5A6,6,0,1,1,728.5,31.5A6,6,0,1,1,740.5,31.5"></path><path id="kity_path_77" fill="none" stroke="gray"></path></g><path id="node_outline7" fill="none" stroke="none" d="M745.5,20.5h356a5,5,0,0,1,5,5v12a5,5,0,0,1,-5,5h-356a5,5,0,0,1,-5,-5v-12a5,5,0,0,1,5,-5z" stroke-width="3"></path><g id="node_text7" fill="black"><text id="kity_text_73" text-rendering="inherit" font-size="12" dy=".8em" y="25.5" x="750.5">byte（占1字节，8位，表示范围：-2^7 ～ 2^7-1，（-128~127）</text></g></g><g id="minder_node8" opacity="1"><g id="node_expander7" display="none" style="cursor: pointer;"><path id="kity_path_84" fill="white" stroke="gray" d="M740.5,83.5A6,6,0,1,1,728.5,83.5A6,6,0,1,1,740.5,83.5"></path><path id="kity_path_85" fill="none" stroke="gray"></path></g><path id="node_outline8" fill="none" stroke="none" d="M745.5,72.5h416a5,5,0,0,1,5,5v12a5,5,0,0,1,-5,5h-416a5,5,0,0,1,-5,-5v-12a5,5,0,0,1,5,-5z" stroke-width="3"></path><g id="node_text8" fill="black"><text id="kity_text_81" text-rendering="inherit" font-size="12" dy=".8em" y="77.5" x="750.5">short（占2字节，16位，表示范围：-2^15 ～ 2^15-1，（-32768~32767））</text></g></g><g id="minder_node9" opacity="1"><g id="node_expander8" display="none" style="cursor: pointer;"><path id="kity_path_92" fill="white" stroke="gray" d="M740.5,135.5A6,6,0,1,1,728.5,135.5A6,6,0,1,1,740.5,135.5"></path><path id="kity_path_93" fill="none" stroke="gray"></path></g><path id="node_outline9" fill="none" stroke="none" d="M745.5,124.5h293a5,5,0,0,1,5,5v12a5,5,0,0,1,-5,5h-293a5,5,0,0,1,-5,-5v-12a5,5,0,0,1,5,-5z" stroke-width="3"></path><g id="node_text9" fill="black"><text id="kity_text_89" text-rendering="inherit" font-size="12" dy=".8em" y="129.5" x="750.5">int（占4字节，32位，-2^31 ～ 2^31-1，一般用 int）</text></g></g><g id="minder_node10" opacity="1"><g id="node_expander9" display="none" style="cursor: pointer;"><path id="kity_path_100" fill="white" stroke="gray" d="M740.5,187.5A6,6,0,1,1,728.5,187.5A6,6,0,1,1,740.5,187.5"></path><path id="kity_path_101" fill="none" stroke="gray"></path></g><path id="node_outline10" fill="none" stroke="none" d="M745.5,176.5h240a5,5,0,0,1,5,5v12a5,5,0,0,1,-5,5h-240a5,5,0,0,1,-5,-5v-12a5,5,0,0,1,5,-5z" stroke-width="3"></path><g id="node_text10" fill="black"><text id="kity_text_97" text-rendering="inherit" font-size="12" dy=".8em" y="181.5" x="750.5">long（占8字节，64位，-2^63 ～ 2^63-1）</text></g></g><g id="minder_node11"><g id="node_expander10" style="cursor: pointer;"><path id="kity_path_108" fill="white" stroke="gray" d="M589.5,109.5A6,6,0,1,1,577.5,109.5A6,6,0,1,1,589.5,109.5"></path><path id="kity_path_109" fill="none" stroke="gray" d="M579,109.5L588,109.5"></path></g><path id="node_outline11" fill="none" stroke="none" d="M594.5,98.5h101a5,5,0,0,1,5,5v12a5,5,0,0,1,-5,5h-101a5,5,0,0,1,-5,-5v-12a5,5,0,0,1,5,-5z" stroke-width="3"></path><g id="node_text11" fill="black"><text id="kity_text_105" text-rendering="inherit" font-size="12" dy=".8em" y="103.5" x="599.5">整数类型（4种）</text></g></g><g id="minder_node12"><g id="node_expander11" style="cursor: pointer;"><path id="kity_path_116" fill="white" stroke="gray" d="M589.5,265.5A6,6,0,1,1,577.5,265.5A6,6,0,1,1,589.5,265.5"></path><path id="kity_path_117" fill="none" stroke="gray" d="M579,265.5L588,265.5"></path></g><path id="node_outline12" fill="none" stroke="none" d="M594.5,254.5h89a5,5,0,0,1,5,5v12a5,5,0,0,1,-5,5h-89a5,5,0,0,1,-5,-5v-12a5,5,0,0,1,5,-5z" stroke-width="3"></path><g id="node_text12" fill="black"><text id="kity_text_113" text-rendering="inherit" font-size="12" dy=".8em" y="259.5" x="599.5">浮点数（2种）</text></g></g><g id="kity_g_12" display="none"><path id="kity_path_13" fill="none" stroke="rgb(66, 94, 112)" d="M594.5,176.5h58a5,5,0,0,1,5,5v12a5,5,0,0,1,-5,5h-58a5,5,0,0,1,-5,-5v-12a5,5,0,0,1,5,-5z" stroke-width="5"></path></g><g id="minder_node13"><g id="node_expander12" display="none" style="cursor: pointer;"><path id="kity_path_124" fill="white" stroke="gray" d="M728.5,239.5A6,6,0,1,1,716.5,239.5A6,6,0,1,1,728.5,239.5"></path><path id="kity_path_125" fill="none" stroke="gray"></path></g><path id="node_outline13" fill="none" stroke="none" d="M733.5,228.5h221a5,5,0,0,1,5,5v12a5,5,0,0,1,-5,5h-221a5,5,0,0,1,-5,-5v-12a5,5,0,0,1,5,-5z" stroke-width="3"></path><g id="node_text13" fill="black"><text id="kity_text_121" text-rendering="inherit" font-size="12" dy=".8em" y="233.5" x="738.5">float 单精度，占4个字节，尾数7位精度</text></g></g><g id="minder_node14"><g id="node_expander13" display="none" style="cursor: pointer;"><path id="kity_path_132" fill="white" stroke="gray" d="M728.5,291.5A6,6,0,1,1,716.5,291.5A6,6,0,1,1,728.5,291.5"></path><path id="kity_path_133" fill="none" stroke="gray"></path></g><path id="node_outline14" fill="none" stroke="none" d="M733.5,280.5h157a5,5,0,0,1,5,5v12a5,5,0,0,1,-5,5h-157a5,5,0,0,1,-5,-5v-12a5,5,0,0,1,5,-5z" stroke-width="3"></path><g id="node_text14" fill="black"><text id="kity_text_129" text-rendering="inherit" font-size="12" dy=".8em" y="285.5" x="738.5">double 双精度，占8个字节</text></g></g><g id="minder_node15"><g id="node_expander14" display="none" style="cursor: pointer;"><path id="kity_path_140" fill="white" stroke="gray" d="M589.5,343.5A6,6,0,1,1,577.5,343.5A6,6,0,1,1,589.5,343.5"></path><path id="kity_path_141" fill="none" stroke="gray"></path></g><path id="node_outline15" fill="none" stroke="none" d="M594.5,332.5h267a5,5,0,0,1,5,5v12a5,5,0,0,1,-5,5h-267a5,5,0,0,1,-5,-5v-12a5,5,0,0,1,5,-5z" stroke-width="3"></path><g id="node_text15" fill="black"><text id="kity_text_137" text-rendering="inherit" font-size="12" dy=".8em" y="337.5" x="599.5">char &#xa0;用单引号来表示 &#xa0;'a'，表示unicode字符集</text></g></g><g id="minder_node16"><g id="node_expander15" display="none" style="cursor: pointer;"><path id="kity_path_148" fill="white" stroke="gray" d="M589.5,395.5A6,6,0,1,1,577.5,395.5A6,6,0,1,1,589.5,395.5"></path><path id="kity_path_149" fill="none" stroke="gray"></path></g><path id="node_outline16" fill="none" stroke="none" d="M594.5,384.5h138a5,5,0,0,1,5,5v12a5,5,0,0,1,-5,5h-138a5,5,0,0,1,-5,-5v-12a5,5,0,0,1,5,-5z" stroke-width="3"></path><g id="node_text16" fill="black"><text id="kity_text_145" text-rendering="inherit" font-size="12" dy=".8em" y="389.5" x="599.5">boolean（true/false）</text></g></g></g></g></svg>